<?xml version="1.0" encoding="UTF-8"?>
<svg width="757px" height="567px" viewBox="0 0 757 567" version="1.1" xmlns="http://www.w3.org/2000/svg" xmlns:xlink="http://www.w3.org/1999/xlink">
    <title>Artboard</title>
    <g id="Artboard" stroke="none" stroke-width="1" fill="none" fill-rule="evenodd">
        <g id="Slices"></g>
        <g id="Offices-Shapes" transform="translate(6.7822, 42)" stroke="#000000">
            <polygon id="Shape" points="745.29492 293.90234 694.19824 293.90234 694.19824 305.24707 613.23047 305.24707 613.23047 216.2832 745.29492 216.2832"></polygon>
            <polygon id="Shape" points="745.29492 518.79492 665.88672 518.79492 665.88672 463.77734 688.00488 463.77734 688.00488 471.3418 745.29492 471.3418"></polygon>
            <rect id="Rectangle" x="613.70507" y="463.77734" width="49.15723" height="55.01758"></rect>
            <rect id="Rectangle" x="525.60058" y="463.77734" width="45.37598" height="55.01758"></rect>
            <rect id="Rectangle" x="483.24902" y="463.77734" width="38.94824" height="55.01758"></rect>
            <rect id="Rectangle" x="439.00781" y="463.77734" width="41.59375" height="55.01758"></rect>
            <polygon id="Rectangle" points="362.24756 463.77734 362.24756 518.79492 436.36133 518.79492 436.36133 463.77734"></polygon>
            <polygon id="Rectangle" points="265.44726 463.77734 265.44726 518.79492 308.93261 518.79492 308.93261 463.77734"></polygon>
            <polygon id="Rectangle" points="311.99463 463.77734 311.99463 518.79492 359.21777 518.79492 359.21777 463.77734"></polygon>
            <polygon id="Rectangle" points="274.89355 393.44434 274.89355 442.60254 318.46777 442.60254 318.46777 393.44434"></polygon>
            <polygon id="Rectangle" points="274.89355 339.95117 274.89355 390.98633 318.46777 390.98633 318.46777 339.95117"></polygon>
            <rect id="Rectangle" x="222.71826" y="463.77734" width="40.08203" height="55.01758"></rect>
            <rect id="Rectangle" x="178.85547" y="463.77734" width="41.59375" height="55.01758"></rect>
            <rect id="Rectangle" x="135.74804" y="463.77734" width="40.46094" height="55.01758"></rect>
            <polygon id="Rectangle" points="82.0542 463.77734 82.0542 518.79492 134.04492 518.79492 134.04492 463.77734"></polygon>
            <polygon id="Shape" points="79.78271 518.79492 -2.13162821e-14 518.79492 -2.13162821e-14 469.82617 60.09423 469.82617 60.09423 463.77734 79.78271 463.77734"></polygon>
            <polygon id="Rectangle" points="-2.84217094e-14 298.15723 -2.84217094e-14 341.26172 57.47656 341.26172 57.47656 298.15723"></polygon>
            <polygon id="Rectangle" points="-2.84217094e-14 344.00488 -2.84217094e-14 381.10937 57.47656 381.10937 57.47656 344.00488"></polygon>
            <polygon id="Rectangle" points="-2.84217094e-14 384.61035 -2.84217094e-14 423.71484 57.47656 423.71484 57.47656 384.61035"></polygon>
            <polygon id="Rectangle" points="-2.84217094e-14 426.64551 -2.84217094e-14 466.66602 57.47656 466.66602 57.47656 426.64551"></polygon>
            <rect id="Rectangle" x="690.46484" y="429.36914" width="54.83008" height="39.70312"></rect>
            <rect id="Rectangle" x="690.46484" y="384.74805" width="54.83008" height="42.35352"></rect>
            <rect id="Rectangle" x="690.46484" y="343.53516" width="54.83008" height="39.32227"></rect>
            <polygon id="Shape" points="690.46484 341.26367 745.29492 341.26367 745.29492 296.93262 696.32519 296.93262 696.32519 307.98828 690.46484 307.98828"></polygon>
            <polygon id="Rectangle" points="172.04492 393.44434 172.04492 442.60254 273.00635 442.60254 273.00635 393.44434"></polygon>
            <polygon id="Rectangle" points="172.04492 340.12695 172.04492 390.98633 273.00635 390.98633 273.00635 340.12695"></polygon>
            <rect id="Rectangle" x="341.07129" y="339.37109" width="85.45801" height="33.47656"></rect>
            <polygon id="Rectangle" points="68.21777 194 68.21777 240 153.67578 240 153.67578 194"></polygon>
            <polygon id="Rectangle" points="523.46777 129.74463 523.46777 162.70947 572.46777 162.70947 572.46777 129.74463"></polygon>
            <polygon id="Rectangle" points="523.46777 94.53516 523.46777 127.5 572.46777 127.5 572.46777 94.53516"></polygon>
            <polygon id="Rectangle" points="523.46777 164.9541 523.46777 197.91894 572.46777 197.91894 572.46777 164.9541"></polygon>
            <rect id="Rectangle" x="523.46777" y="200.16309" width="49" height="32.96484"></rect>
            <polygon id="Rectangle" points="523.46777 235.37256 523.46777 268.3374 572.46777 268.3374 572.46777 235.37256"></polygon>
            <polygon id="Rectangle" points="428.79785 339.37109 428.79785 442.60254 505.55762 442.60254 505.55762 339.37109"></polygon>
            <rect id="Rectangle" x="507.44824" y="339.37109" width="55.20898" height="51.61523"></rect>
            <rect id="Rectangle" x="507.44824" y="393.44434" width="55.20898" height="49.1582"></rect>
            <polygon id="Rectangle" points="341.07129 374.91699 341.07129 442.60254 426.5293 442.60254 426.5293 374.91699"></polygon>
            <polygon id="Rectangle" points="68.21777 0 68.21777 46 153.67578 46 153.67578 0"></polygon>
            <polygon id="Rectangle" points="68.21777 46 68.21777 80 153.21777 80 153.21777 46"></polygon>
        </g>
        <g id="Offices-Labels" transform="translate(22, 49)" fill="#000000" font-family="Helvetica" font-weight="normal">
            <text id="4.422-Computational" font-size="9">
                <tspan x="61" y="202">4.422</tspan>
                <tspan x="61" y="213">Computational</tspan>
                <tspan x="61" y="224">Linguistics Lab</tspan>
            </text>
            <text id="4.110-Neurolinguisti" font-size="9">
                <tspan x="61" y="9">4.110</tspan>
                <tspan x="61" y="20">Neurolinguistics</tspan>
                <tspan x="61" y="31">Lab</tspan>
            </text>
            <text id="4.108-CoCoScil-Lab" font-size="9">
                <tspan x="61" y="54">4.108</tspan>
                <tspan x="61" y="65">CoCoScil Lab</tspan>
            </text>
            <text id="4.426" font-size="10">
                <tspan x="0.487792969" y="317">4.426</tspan>
            </text>
            <text id="4.428" font-size="10">
                <tspan x="0.487792969" y="360">4.428</tspan>
            </text>
            <text id="4.430" font-size="10">
                <tspan x="0.487792969" y="401">4.430</tspan>
            </text>
            <text id="4.432" font-size="10">
                <tspan x="0.487792969" y="443">4.432</tspan>
            </text>
            <text id="4.702" font-size="10">
                <tspan x="13.487793" y="489">4.702</tspan>
            </text>
            <text id="4.704" font-size="10">
                <tspan x="80.487793" y="489">4.704</tspan>
            </text>
            <text id="4.706" font-size="10">
                <tspan x="128.487793" y="489">4.706</tspan>
            </text>
            <text id="4.708" font-size="10">
                <tspan x="171.487793" y="489">4.708</tspan>
            </text>
            <text id="4.712" font-size="10">
                <tspan x="215.487793" y="489">4.712</tspan>
            </text>
            <text id="4.714" font-size="10">
                <tspan x="259.487793" y="489">4.714</tspan>
            </text>
            <text id="4.718" font-size="10">
                <tspan x="307.487793" y="489">4.718</tspan>
            </text>
            <text id="4.720" font-size="10">
                <tspan x="371.487793" y="489">4.720</tspan>
            </text>
            <text id="4.724" font-size="10">
                <tspan x="431.487793" y="489">4.724</tspan>
            </text>
            <text id="4.726" font-size="10">
                <tspan x="474.487793" y="489">4.726</tspan>
            </text>
            <text id="4.728" font-size="10">
                <tspan x="519.487793" y="489">4.728</tspan>
            </text>
            <text id="4.730" font-size="10">
                <tspan x="610.487793" y="489">4.730</tspan>
            </text>
            <text id="4.732" font-size="10">
                <tspan x="677.487793" y="489">4.732</tspan>
            </text>
            <text id="4.734" font-size="10">
                <tspan x="689.487793" y="445">4.734</tspan>
            </text>
            <text id="4.736" font-size="10">
                <tspan x="689.487793" y="403">4.736</tspan>
            </text>
            <text id="4.738" font-size="10">
                <tspan x="689.487793" y="360">4.738</tspan>
            </text>
            <text id="4.618" font-size="10">
                <tspan x="519.487793" y="108">4.618</tspan>
            </text>
            <text id="4.620" font-size="10">
                <tspan x="519.487793" y="143">4.620</tspan>
            </text>
            <text id="4.622" font-size="10">
                <tspan x="519.487793" y="178">4.622</tspan>
            </text>
            <text id="4.624" font-size="10">
                <tspan x="519.487793" y="213">4.624</tspan>
            </text>
            <text id="4.626" font-size="10">
                <tspan x="519.487793" y="248">4.626</tspan>
            </text>
            <text id="4.740" font-size="10">
                <tspan x="689.487793" y="310">4.740</tspan>
                <tspan x="688.103516" y="322">CILLA</tspan>
            </text>
            <text id="4.434" font-size="9">
                <tspan x="164" y="350">4.434</tspan>
                <tspan x="164" y="361">Syntax &amp; Semantics</tspan>
                <tspan x="164" y="372">Computer Lab</tspan>
            </text>
            <text id="4.710" font-size="9">
                <tspan x="164" y="403">4.710</tspan>
                <tspan x="164" y="414">Syntax &amp; Semantics</tspan>
                <tspan x="164" y="425">Meeting Room</tspan>
            </text>
            <text id="4.716" font-size="9">
                <tspan x="333" y="412">4.716</tspan>
                <tspan x="333" y="423">Documentary Lab</tspan>
            </text>
            <text id="4.304C" font-size="10">
                <tspan x="266" y="363">4.304C</tspan>
            </text>
            <text id="4.304D" font-size="10">
                <tspan x="266" y="415">4.304D</tspan>
            </text>
            <text id="4.722-Sound-Lab" font-size="9">
                <tspan x="421" y="412">4.722</tspan>
                <tspan x="421" y="423">Sound Lab</tspan>
            </text>
            <text id="4.722B" font-size="9">
                <tspan x="499" y="403">4.722B</tspan>
                <tspan x="499" y="414">Recording </tspan>
                <tspan x="499" y="425">Booth</tspan>
            </text>
            <text id="4.722A" font-size="9">
                <tspan x="499" y="345">4.722A</tspan>
                <tspan x="499" y="356">Recording </tspan>
                <tspan x="499" y="367">Control </tspan>
                <tspan x="499" y="378">Room</tspan>
            </text>
            <text id="Front-Desk-(FD)" font-size="8">
                <tspan x="328.332031" y="315">Front Desk (FD)</tspan>
            </text>
        </g>
        <g id="Workstations-East---Listing" transform="translate(208, 35)" fill="#000000" font-family="Helvetica" font-size="9" font-weight="normal">
            <text id="Jess-Alexander-4.110">
                <tspan x="0" y="34">Jess Alexander   4.110</tspan>
                <tspan x="0" y="45">Erica Alvarez   4.718</tspan>
                <tspan x="0" y="56">Ivana Ash   E1</tspan>
                <tspan x="0" y="67">Cem Barutçu   E9</tspan>
                <tspan x="0" y="78">David Beaver   4.708</tspan>
                <tspan x="0" y="89">John Beavers   4.720</tspan>
                <tspan x="0" y="100">Sasha Boguraev   W2</tspan>
                <tspan x="0" y="111">Masha Cheremisinova   E5</tspan>
                <tspan x="0" y="122">Gabriella Chronis   E4</tspan>
                <tspan x="0" y="133">Megan Crowhurst   4.712</tspan>
                <tspan x="0" y="144">Meg Davidson   4.618</tspan>
                <tspan x="0" y="155">Ashwini Deo   4.426</tspan>
                <tspan x="0" y="166">Sampada Deshpande   W5</tspan>
                <tspan x="0" y="177">Pattie Epps   4.736</tspan>
                <tspan x="0" y="188">Katrin Erk   4.734</tspan>
                <tspan x="0" y="199">Teagan Esther   E7</tspan>
                <tspan x="0" y="210">James Fazio   4.622</tspan>
                <tspan x="0" y="221">Gabriel Gallinate   E8</tspan>
                <tspan x="0" y="232">Barrett Hamp   W12</tspan>
                <tspan x="0" y="243">Leticia Hanada   W10</tspan>
                <tspan x="0" y="254">Ethan Hartzell   E3</tspan>
                <tspan x="0" y="265">Juan Pablo Jáuregui Magrina   W9</tspan>
            </text>
            <text id="Taylor-Joyce-W11-Dan">
                <tspan x="158" y="34">Taylor Joyce   W11</tspan>
                <tspan x="158" y="45">Danny Law   4.432</tspan>
                <tspan x="158" y="56">Rebecca Le Borgne   4.624</tspan>
                <tspan x="158" y="67">Sooji Lee   E6</tspan>
                <tspan x="158" y="78">Jessy Li   4.728</tspan>
                <tspan x="158" y="89">Fernando Llanos   4.730</tspan>
                <tspan x="158" y="100">Agnes Lombardi   4.428</tspan>
                <tspan x="158" y="111">Kyle Mahowald   4.430</tspan>
                <tspan x="158" y="122">Rebecca Marcus   4.304C</tspan>
                <tspan x="158" y="133">Richard Meier   4.732</tspan>
                <tspan x="158" y="144">Don Miller   4.618</tspan>
                <tspan x="158" y="155">Scott Myers   4.726</tspan>
                <tspan x="158" y="166">Lillian Nguyen   FD</tspan>
                <tspan x="158" y="177">Baorian Nuchged   4.110</tspan>
                <tspan x="158" y="188">Corrine Occhino   4.704</tspan>
                <tspan x="158" y="199">Lee Orfila   W8</tspan>
                <tspan x="158" y="210">Youn-Gyu Park   W7</tspan>
                <tspan x="158" y="221">SeYeon Park   E10</tspan>
                <tspan x="158" y="232">Justin Power   4.706</tspan>
                <tspan x="158" y="243">David Quinto-Pozos   4.714</tspan>
                <tspan x="158" y="254">Ben Rapstine   4.304D</tspan>
                <tspan x="158" y="265">Hongjin Ren   W1</tspan>
            </text>
            <text id="Catalina-Santamaria">
                <tspan x="401" y="9">Catalina Santamaria Soto   E12</tspan>
                <tspan x="401" y="20">Jefferson Saransig   W13</tspan>
                <tspan x="401" y="31">Will Sheffield   W4</tspan>
                <tspan x="401" y="42">Rajka Smiljanić   4.724</tspan>
                <tspan x="401" y="53">Madeline Smith   (NA)</tspan>
                <tspan x="401" y="64">Steve Wechsler   4.702</tspan>
                <tspan x="401" y="75">Leonie Weissweiler	4.108</tspan>
                <tspan x="401" y="86">Sierra Westjohn   E2</tspan>
                <tspan x="401" y="97">Debbie White   4.620</tspan>
                <tspan x="401" y="108">Elijah Wilder   E11</tspan>
                <tspan x="401" y="119">Tony Woodbury   4.738</tspan>
                <tspan x="401" y="130">Michael Wynne   4.626</tspan>
                <tspan x="401" y="141">Qing Yao   W6</tspan>
                <tspan x="401" y="152">Hongli Zhan   (NA)</tspan>
                <tspan x="401" y="163">Asher Zheng   W3</tspan>
            </text>
        </g>
        <g id="Workstations-East---Outlines" transform="translate(599, 369)" stroke="#000000">
            <path d="M25.5,35.5 L25.5,55.5 L0.5,55.5 L0.5,35.5 L25.5,35.5 Z" id="Rectangle-65"></path>
            <path d="M79.5,57.5 L79.5,77.5 L54.5,77.5 L54.5,57.5 L79.5,57.5 Z" id="Rectangle-65"></path>
            <path d="M52.5,57.5 L52.5,77.5 L27.5,77.5 L27.5,57.5 L52.5,57.5 Z" id="Rectangle-65"></path>
            <path d="M25.5,57.5 L25.5,77.5 L0.5,77.5 L0.5,57.5 L25.5,57.5 Z" id="Rectangle-65"></path>
            <path d="M79.5,35.5 L79.5,55.5 L54.5,55.5 L54.5,35.5 L79.5,35.5 Z" id="Rectangle-65"></path>
            <path d="M52.5,35.5 L52.5,55.5 L27.5,55.5 L27.5,35.5 L52.5,35.5 Z" id="Rectangle-65"></path>
            <path d="M25.5,0.5 L25.5,20.5 L0.5,20.5 L0.5,0.5 L25.5,0.5 Z" id="Rectangle-65-copy"></path>
            <path d="M79.5,0.5 L79.5,20.5 L54.5,20.5 L54.5,0.5 L79.5,0.5 Z" id="Rectangle-65-copy"></path>
            <path d="M52.5,0.5 L52.5,20.5 L27.5,20.5 L27.5,0.5 L52.5,0.5 Z" id="Rectangle-65-copy"></path>
            <path d="M25.5,91.5 L25.5,111.5 L0.5,111.5 L0.5,91.5 L25.5,91.5 Z" id="Rectangle-65-copy-2"></path>
            <path d="M79.5,91.5 L79.5,111.5 L54.5,111.5 L54.5,91.5 L79.5,91.5 Z" id="Rectangle-65-copy-2"></path>
            <path d="M52.5,91.5 L52.5,111.5 L27.5,111.5 L27.5,91.5 L52.5,91.5 Z" id="Rectangle-65-copy-2"></path>
        </g>
        <g id="Workstations-East---Labels" transform="translate(603, 373)" fill="#000000" font-family="Helvetica" font-size="10" font-weight="normal">
            <text id="E1">
                <tspan x="3.38427734" y="10">E1</tspan>
            </text>
            <text id="E2">
                <tspan x="30.3842773" y="10">E2</tspan>
            </text>
            <text id="E3">
                <tspan x="57.3842773" y="10">E3</tspan>
            </text>
            <text id="E4">
                <tspan x="3.38427734" y="45">E4</tspan>
            </text>
            <text id="E5">
                <tspan x="30.3842773" y="45">E5</tspan>
            </text>
            <text id="E6">
                <tspan x="57.3842773" y="45">E6</tspan>
            </text>
            <text id="E7">
                <tspan x="3.38427734" y="67">E7</tspan>
            </text>
            <text id="E8">
                <tspan x="30.3842773" y="67">E8</tspan>
            </text>
            <text id="E9">
                <tspan x="57.3842773" y="67">E9</tspan>
            </text>
            <text id="E10">
                <tspan x="0.103515625" y="101">E10</tspan>
            </text>
            <text id="E11">
                <tspan x="27.472168" y="101">E11</tspan>
            </text>
            <text id="E12">
                <tspan x="54.1035156" y="101">E12</tspan>
            </text>
        </g>
        <g id="Workstations-West---Outlines" transform="translate(85, 339)" stroke="#000000">
            <path d="M25.5,67.5 L25.5,87.5 L0.5,87.5 L0.5,67.5 L25.5,67.5 Z" id="Rectangle-65"></path>
            <path d="M79.5,89.5 L79.5,109.5 L54.5,109.5 L54.5,89.5 L79.5,89.5 Z" id="Rectangle-65"></path>
            <path d="M52.5,89.5 L52.5,109.5 L27.5,109.5 L27.5,89.5 L52.5,89.5 Z" id="Rectangle-65"></path>
            <path d="M25.5,89.5 L25.5,109.5 L0.5,109.5 L0.5,89.5 L25.5,89.5 Z" id="Rectangle-65"></path>
            <path d="M79.5,125.5 L79.5,145.5 L54.5,145.5 L54.5,125.5 L79.5,125.5 Z" id="Rectangle-65-copy"></path>
            <path d="M52.5,125.5 L52.5,145.5 L27.5,145.5 L27.5,125.5 L52.5,125.5 Z" id="Rectangle-65-copy"></path>
            <path d="M25.5,125.5 L25.5,145.5 L0.5,145.5 L0.5,125.5 L25.5,125.5 Z" id="Rectangle-65-copy"></path>
            <path d="M79.5,67.5 L79.5,87.5 L54.5,87.5 L54.5,67.5 L79.5,67.5 Z" id="Rectangle-65"></path>
            <path d="M52.5,67.5 L52.5,87.5 L27.5,87.5 L27.5,67.5 L52.5,67.5 Z" id="Rectangle-65"></path>
            <path d="M25.5,0.5 L25.5,20.5 L0.5,20.5 L0.5,0.5 L25.5,0.5 Z" id="Rectangle-65-copy"></path>
            <path d="M52.5,22.5 L52.5,42.5 L27.5,42.5 L27.5,22.5 L52.5,22.5 Z" id="Rectangle-65-copy"></path>
            <path d="M25.5,22.5 L25.5,42.5 L0.5,42.5 L0.5,22.5 L25.5,22.5 Z" id="Rectangle-65-copy"></path>
            <path d="M52.5,0.5 L52.5,20.5 L27.5,20.5 L27.5,0.5 L52.5,0.5 Z" id="Rectangle-65-copy"></path>
        </g>
        <g id="Workstations-West---Labels" transform="translate(88, 344)" fill="#000000" font-family="Helvetica" font-size="10" font-weight="normal">
            <text id="W5">
                <tspan x="3" y="76">W5</tspan>
            </text>
            <text id="W1">
                <tspan x="3" y="10">W1</tspan>
            </text>
            <text id="W3">
                <tspan x="3" y="31">W3</tspan>
            </text>
            <text id="W4">
                <tspan x="30" y="31">W4</tspan>
            </text>
            <text id="W2">
                <tspan x="30" y="10">W2</tspan>
            </text>
            <text id="W6">
                <tspan x="30" y="76">W6</tspan>
            </text>
            <text id="W7">
                <tspan x="57" y="76">W7</tspan>
            </text>
            <text id="W8">
                <tspan x="3" y="98">W8</tspan>
            </text>
            <text id="W11">
                <tspan x="0.087890625" y="135">W11</tspan>
            </text>
            <text id="W9">
                <tspan x="30" y="98">W9</tspan>
            </text>
            <text id="W10">
                <tspan x="54.2192383" y="98">W10</tspan>
            </text>
            <text id="W12">
                <tspan x="27.2192383" y="135">W12</tspan>
            </text>
            <text id="W13">
                <tspan x="54.2192383" y="135">W13</tspan>
            </text>
        </g>
        <g id="RLP-Walls" transform="translate(7, 34)" stroke="#000000">
            <path d="M181.48877,348 C181.480091,337.242068 181.473581,329.173619 181.469241,323.794653 C181.466051,319.840285 181.461266,313.908735 181.454885,306 C163.957043,306 150.833662,306 142.084741,306 C139.843687,306 136.482107,306 132,306" id="Shape"></path>
            <polyline id="Shape" points="317.74463 347 317.74463 305.623047 346.89941 305.623047"></polyline>
            <polyline id="Shape" points="373.20898 305.623047 425.74414 305.623047 425.74414 346.585534"></polyline>
            <polyline id="Shape" points="575.5 313.41699 562.5 313.41699 562.5 346.41699"></polyline>
            <line x1="613.0625" y1="313" x2="593.5" y2="313" id="Shape"></line>
            <line x1="584.5" y1="276.5" x2="572.03125" y2="276.5" id="Shape"></line>
            <line x1="45.5" y1="248" x2="38.03125" y2="248" id="Shape"></line>
            <line x1="68.5" y1="248" x2="61.03125" y2="248" id="Shape"></line>
            <line x1="612.5" y1="276.5" x2="600.03125" y2="276.5" id="Shape"></line>
            <line x1="572.64941" y1="486" x2="610.83496" y2="486" id="Shape"></line>
            <polyline id="Shape" points="0 248 38 248 38 0"></polyline>
            <polyline id="Shape" transform="translate(87, 159.5) scale(-1, -1) translate(-87, -159.5)" points="68 202 106 202 106 117"></polyline>
        </g>
        <g id="RLP-Labels" transform="translate(6, 7)" fill="#000000" font-family="Helvetica-Bold, Helvetica" font-size="18" font-weight="bold">
            <text id="Department-of-Lingui">
                <tspan x="0" y="18">Department of Linguistics</tspan>
                <tspan x="222.020508" y="18" font-family="Helvetica" font-weight="normal"> | Patton Hall, Fourth Floor</tspan>
            </text>
        </g>
        <text id="⃪-to-Skybridge" font-family="STIXTwoMath-Regular, STIX Two Math" font-size="9" font-weight="normal" fill="#000000">
            <tspan x="12.922" y="317">⃪</tspan>
            <tspan x="12.922" y="317" font-family="Helvetica"> </tspan>
            <tspan x="15.4224883" y="317" font-family="Helvetica-Oblique, Helvetica" font-style="italic">to Skybridge</tspan>
        </text>
        <text id="to-elevators-→" font-family="Helvetica-Oblique, Helvetica" font-size="9" font-style="italic" font-weight="normal" fill="#000000">
            <tspan x="106" y="141">to elevators </tspan>
            <tspan x="155.025391" y="141" font-family="LucidaGrande, Lucida Grande">→</tspan>
        </text>
    </g>
</svg>