<?xml version="1.0" encoding="UTF-8"?>
<svg width="757px" height="567px" viewBox="0 0 757 567" version="1.1" xmlns="http://www.w3.org/2000/svg" xmlns:xlink="http://www.w3.org/1999/xlink">
    <title>Artboard</title>
    <g id="Artboard" stroke="none" stroke-width="1" fill="none" fill-rule="evenodd">
        <g id="Slices"></g>
        <g id="Offices-Shapes" transform="translate(6.7822, 40.5352)" stroke="#000000">
            <polygon id="Shape" points="745.29492 295.36718 694.19824 295.36718 694.19824 306.71191 613.23047 306.71191 613.23047 217.74804 745.29492 217.74804"></polygon>
            <line x1="157.71777" y1="0.96484" x2="331.71777" y2="0.96484" id="Line" stroke-linecap="square"></line>
            <polygon id="Shape" points="745.29492 520.25976 665.88672 520.25976 665.88672 465.24218 688.00488 465.24218 688.00488 472.80664 745.29492 472.80664"></polygon>
            <rect id="Rectangle" x="613.70507" y="465.24218" width="49.15723" height="55.01758"></rect>
            <rect id="Rectangle" x="525.60058" y="465.24218" width="45.37598" height="55.01758"></rect>
            <rect id="Rectangle" x="483.24902" y="465.24218" width="38.94824" height="55.01758"></rect>
            <rect id="Rectangle" x="439.00781" y="465.24218" width="41.59375" height="55.01758"></rect>
            <polygon id="Rectangle" points="362.24756 465.24218 362.24756 520.25976 436.36133 520.25976 436.36133 465.24218"></polygon>
            <polygon id="Rectangle" points="265.44726 465.24218 265.44726 520.25976 308.93261 520.25976 308.93261 465.24218"></polygon>
            <polygon id="Rectangle" points="311.99463 465.24218 311.99463 520.25976 359.21777 520.25976 359.21777 465.24218"></polygon>
            <polygon id="Rectangle" points="274.89355 394.90918 274.89355 444.06738 318.46777 444.06738 318.46777 394.90918"></polygon>
            <polygon id="Rectangle" points="274.89355 341.41601 274.89355 392.45117 318.46777 392.45117 318.46777 341.41601"></polygon>
            <rect id="Rectangle" x="222.71826" y="465.24218" width="40.08203" height="55.01758"></rect>
            <rect id="Rectangle" x="178.85547" y="465.24218" width="41.59375" height="55.01758"></rect>
            <rect id="Rectangle" x="135.74804" y="465.24218" width="40.46094" height="55.01758"></rect>
            <polygon id="Rectangle" points="82.0542 465.24218 82.0542 520.25976 134.04492 520.25976 134.04492 465.24218"></polygon>
            <polygon id="Shape" points="79.78271 520.25976 -2.13162821e-14 520.25976 -2.13162821e-14 471.29101 60.09423 471.29101 60.09423 465.24218 79.78271 465.24218"></polygon>
            <polygon id="Rectangle" points="-2.84217094e-14 299.62207 -2.84217094e-14 342.72656 57.47656 342.72656 57.47656 299.62207"></polygon>
            <polygon id="Rectangle" points="-2.84217094e-14 345.46972 -2.84217094e-14 382.57421 57.47656 382.57421 57.47656 345.46972"></polygon>
            <polygon id="Rectangle" points="-2.84217094e-14 386.07519 -2.84217094e-14 425.17968 57.47656 425.17968 57.47656 386.07519"></polygon>
            <polygon id="Rectangle" points="-2.84217094e-14 428.11035 -2.84217094e-14 468.13086 57.47656 468.13086 57.47656 428.11035"></polygon>
            <rect id="Rectangle" x="690.46484" y="430.83398" width="54.83008" height="39.70312"></rect>
            <rect id="Rectangle" x="690.46484" y="386.21289" width="54.83008" height="42.35352"></rect>
            <rect id="Rectangle" x="690.46484" y="345" width="54.83008" height="39.32227"></rect>
            <polygon id="Shape" points="690.46484 342.72851 745.29492 342.72851 745.29492 298.39746 696.32519 298.39746 696.32519 309.45312 690.46484 309.45312"></polygon>
            <polygon id="Rectangle" points="172.04492 394.90918 172.04492 444.06738 273.00635 444.06738 273.00635 394.90918"></polygon>
            <polygon id="Rectangle" points="172.04492 341.59179 172.04492 392.45117 273.00635 392.45117 273.00635 341.59179"></polygon>
            <rect id="Rectangle" x="341.07129" y="340.83593" width="85.45801" height="33.47656"></rect>
            <polygon id="Rectangle" points="68.21777 195.46484 68.21777 241.46484 153.67578 241.46484 153.67578 195.46484"></polygon>
            <polygon id="Rectangle" points="523.46777 131.20947 523.46777 164.17431 572.46777 164.17431 572.46777 131.20947"></polygon>
            <polygon id="Rectangle" points="523.46777 96 523.46777 128.96484 572.46777 128.96484 572.46777 96"></polygon>
            <path d="M571.21777,93.46484 C571.188131,69.8998458 571.165901,52.2261002 571.151082,40.4436031 C571.140188,31.7816558 571.123845,18.7887347 571.102055,1.46484 C511.348393,1.46484 466.533145,1.46484 436.656314,1.46484 C429.003304,1.46484 417.52379,1.46484 402.21777,1.46484" id="Shape"></path>
            <polygon id="Rectangle" points="335.46777 1 335.46777 29 399.46777 29 399.46777 1"></polygon>
            <polygon id="Rectangle" points="523.46777 166.41894 523.46777 199.38378 572.46777 199.38378 572.46777 166.41894"></polygon>
            <rect id="Rectangle" x="523.46777" y="201.62793" width="49" height="32.96484"></rect>
            <polygon id="Rectangle" points="523.46777 236.8374 523.46777 269.80224 572.46777 269.80224 572.46777 236.8374"></polygon>
            <polygon id="Rectangle" points="428.79785 340.83593 428.79785 444.06738 505.55762 444.06738 505.55762 340.83593"></polygon>
            <rect id="Rectangle" x="507.44824" y="340.83593" width="55.20898" height="51.61523"></rect>
            <rect id="Rectangle" x="507.44824" y="394.90918" width="55.20898" height="49.1582"></rect>
            <polygon id="Rectangle" points="341.07129 376.38183 341.07129 444.06738 426.5293 444.06738 426.5293 376.38183"></polygon>
            <polygon id="Rectangle" points="68.21777 0.46484 68.21777 46.46484 153.67578 46.46484 153.67578 0.46484"></polygon>
            <polygon id="Rectangle" points="68.21777 48.46484 68.21777 82.46484 153.21777 82.46484 153.21777 48.46484"></polygon>
        </g>
        <g id="Offices-Labels" transform="translate(22, 45)" fill="#000000" font-family="Helvetica" font-weight="normal">
            <text id="4.422-Computational" font-size="9">
                <tspan x="61" y="206">4.422</tspan>
                <tspan x="61" y="217">Computational</tspan>
                <tspan x="61" y="228">Linguistics Lab</tspan>
            </text>
            <text id="4.110-Neurolinguisti" font-size="9">
                <tspan x="61" y="11">4.110</tspan>
                <tspan x="61" y="22">Neurolinguistics</tspan>
                <tspan x="61" y="33">Lab</tspan>
            </text>
            <text id="4.530C-Occhino-Lab" font-size="9">
                <tspan x="325" y="9">4.530C</tspan>
                <tspan x="325" y="20">Occhino Lab</tspan>
            </text>
            <text id="4.426" font-size="10">
                <tspan x="0.487792969" y="321">4.426</tspan>
            </text>
            <text id="4.428" font-size="10">
                <tspan x="0.487792969" y="364">4.428</tspan>
            </text>
            <text id="4.430" font-size="10">
                <tspan x="0.487792969" y="405">4.430</tspan>
            </text>
            <text id="4.432" font-size="10">
                <tspan x="0.487792969" y="447">4.432</tspan>
            </text>
            <text id="4.702" font-size="10">
                <tspan x="13.487793" y="493">4.702</tspan>
            </text>
            <text id="4.704" font-size="10">
                <tspan x="80.487793" y="493">4.704</tspan>
            </text>
            <text id="4.706" font-size="10">
                <tspan x="128.487793" y="493">4.706</tspan>
            </text>
            <text id="4.708" font-size="10">
                <tspan x="171.487793" y="493">4.708</tspan>
            </text>
            <text id="4.712" font-size="10">
                <tspan x="215.487793" y="493">4.712</tspan>
            </text>
            <text id="4.714" font-size="10">
                <tspan x="259.487793" y="493">4.714</tspan>
            </text>
            <text id="4.718" font-size="10">
                <tspan x="307.487793" y="493">4.718</tspan>
            </text>
            <text id="4.720" font-size="10">
                <tspan x="371.487793" y="493">4.720</tspan>
            </text>
            <text id="4.724" font-size="10">
                <tspan x="431.487793" y="493">4.724</tspan>
            </text>
            <text id="4.726" font-size="10">
                <tspan x="474.487793" y="493">4.726</tspan>
            </text>
            <text id="4.728" font-size="10">
                <tspan x="519.487793" y="493">4.728</tspan>
            </text>
            <text id="4.730" font-size="10">
                <tspan x="610.487793" y="493">4.730</tspan>
            </text>
            <text id="4.732" font-size="10">
                <tspan x="677.487793" y="493">4.732</tspan>
            </text>
            <text id="4.734" font-size="10">
                <tspan x="689.487793" y="449">4.734</tspan>
            </text>
            <text id="4.736" font-size="10">
                <tspan x="689.487793" y="407">4.736</tspan>
            </text>
            <text id="4.738" font-size="10">
                <tspan x="689.487793" y="364">4.738</tspan>
            </text>
            <text id="4.618" font-size="10">
                <tspan x="519.487793" y="112">4.618</tspan>
            </text>
            <text id="4.620" font-size="10">
                <tspan x="519.487793" y="147">4.620</tspan>
            </text>
            <text id="4.622" font-size="10">
                <tspan x="519.487793" y="182">4.622</tspan>
            </text>
            <text id="4.624" font-size="10">
                <tspan x="519.487793" y="217">4.624</tspan>
            </text>
            <text id="4.626" font-size="10">
                <tspan x="519.487793" y="252">4.626</tspan>
            </text>
            <text id="4.740" font-size="10">
                <tspan x="689.487793" y="314">4.740</tspan>
                <tspan x="688.103516" y="326">CILLA</tspan>
            </text>
            <text id="4.434" font-size="9">
                <tspan x="164" y="354">4.434</tspan>
                <tspan x="164" y="365">Syntax &amp; Semantics</tspan>
                <tspan x="164" y="376">Computer Lab</tspan>
            </text>
            <text id="4.710" font-size="9">
                <tspan x="164" y="407">4.710</tspan>
                <tspan x="164" y="418">Syntax &amp; Semantics</tspan>
                <tspan x="164" y="429">Meeting Room</tspan>
            </text>
            <text id="4.716" font-size="9">
                <tspan x="333" y="416">4.716</tspan>
                <tspan x="333" y="427">Documentary Lab</tspan>
            </text>
            <text id="4.304C" font-size="10">
                <tspan x="266" y="367">4.304C</tspan>
            </text>
            <text id="4.304D" font-size="10">
                <tspan x="266" y="419">4.304D</tspan>
            </text>
            <text id="4.722-Sound-Lab" font-size="9">
                <tspan x="421" y="416">4.722</tspan>
                <tspan x="421" y="427">Sound Lab</tspan>
            </text>
            <text id="4.722B" font-size="9">
                <tspan x="499" y="407">4.722B</tspan>
                <tspan x="499" y="418">Recording </tspan>
                <tspan x="499" y="429">Booth</tspan>
            </text>
            <text id="4.722A" font-size="9">
                <tspan x="499" y="349">4.722A</tspan>
                <tspan x="499" y="360">Recording </tspan>
                <tspan x="499" y="371">Control </tspan>
                <tspan x="499" y="382">Room</tspan>
            </text>
            <text id="Front-Desk-(FD)" font-size="8">
                <tspan x="328.332031" y="319">Front Desk (FD)</tspan>
            </text>
        </g>
        <g id="Workstations-East---Listing" transform="translate(193, 40)" fill="#000000" font-family="Helvetica" font-size="9" font-weight="normal">
            <text id="Akshay-Aitha-4.706-J">
                <tspan x="0" y="18">Akshay Aitha   4.706</tspan>
                <tspan x="0" y="29">Jess Alexander   4.110/E9</tspan>
                <tspan x="0" y="40">Erica Alvarez   4.718</tspan>
                <tspan x="0" y="51">Ivana Ash   E1</tspan>
                <tspan x="0" y="62">Cem Barutçu   E9</tspan>
                <tspan x="0" y="73">David Beaver   4.708</tspan>
                <tspan x="0" y="84">John Beavers   4.720</tspan>
                <tspan x="0" y="95">Sasha Boguraev   W2</tspan>
                <tspan x="0" y="106">Anna Borisova   FD</tspan>
                <tspan x="0" y="117">Thiago Cardoso Aguiar   W9</tspan>
                <tspan x="0" y="128">Masha Cheremisinova   E5</tspan>
                <tspan x="0" y="139">Yejin Cho   (NA)</tspan>
                <tspan x="0" y="150">Gabriella Chronis   E4</tspan>
                <tspan x="0" y="161">Megan Crowhurst   4.712</tspan>
                <tspan x="0" y="172">Meg Davidson   4.618</tspan>
                <tspan x="0" y="183">Meg Davis   WCP 4.134</tspan>
                <tspan x="0" y="194">Ashwini Deo   4.426</tspan>
                <tspan x="0" y="205">Sampada Deshpande   W5</tspan>
                <tspan x="0" y="216">Pattie Epps   4.736</tspan>
                <tspan x="0" y="227">Teagan Esther   E7</tspan>
                <tspan x="0" y="238">James Fazio   4.622</tspan>
                <tspan x="0" y="249">Gabriel Gallinate   E8</tspan>
                <tspan x="0" y="260">Barrett Hamp   W12</tspan>
                <tspan x="0" y="271">Leticia Hanada   W10</tspan>
                <tspan x="0" y="282">Ethan Hartzell   E3</tspan>
                <tspan x="0" y="293">Juan Pablo Jáuregui Magrina   (NA)</tspan>
            </text>
            <text id="Taylor-Joyce-W11-Anu">
                <tspan x="173" y="48">Taylor Joyce   W11</tspan>
                <tspan x="173" y="59">Anushri Kartik-Narajan   4.110</tspan>
                <tspan x="173" y="70">Danny Law   4.432</tspan>
                <tspan x="173" y="81">Rebecca Le Borgne   4.624</tspan>
                <tspan x="173" y="92">Sooji Lee   E6</tspan>
                <tspan x="173" y="103">Jessy Li   4.728</tspan>
                <tspan x="173" y="114">Fernando Llanos   4.730</tspan>
                <tspan x="173" y="125">Kyle Mahowald   4.430</tspan>
                <tspan x="173" y="136">Rebecca Marcus   4.304C</tspan>
                <tspan x="173" y="147">Richard Meier   4.732</tspan>
                <tspan x="173" y="158">Don Miller   4.618</tspan>
                <tspan x="173" y="169">Kanishka Misra   4.428</tspan>
                <tspan x="173" y="180">Kaiji Mo   W1</tspan>
                <tspan x="173" y="191">Scott Myers   4.726</tspan>
                <tspan x="173" y="202">Lillian Nguyen   FD</tspan>
                <tspan x="173" y="213">Baorian Nuchged   4.110/W8</tspan>
                <tspan x="173" y="224">Karol Obert   4.734</tspan>
                <tspan x="173" y="235">Corrine Occhino   4.704</tspan>
                <tspan x="173" y="246">Lee Orfila   W8</tspan>
                <tspan x="173" y="257">Youn-Gyu Park   W7</tspan>
                <tspan x="173" y="268">SeYeon Park   E10</tspan>
                <tspan x="173" y="279">Justin Power   4.740</tspan>
            </text>
            <text id="David-Quinto-Pozos-4">
                <tspan x="416" y="9">David Quinto-Pozos   4.714</tspan>
                <tspan x="416" y="20">Ben Rapstine   4.304D</tspan>
                <tspan x="416" y="31">Oscar Rojas   E8</tspan>
                <tspan x="416" y="42">Catalina Santamaria Soto   E12</tspan>
                <tspan x="416" y="53">Jefferson Saransig   W13</tspan>
                <tspan x="416" y="64">Ari Schifman   E2</tspan>
                <tspan x="416" y="75">Will Sheffield   W4</tspan>
                <tspan x="416" y="86">Rajka Smiljanić   4.724</tspan>
                <tspan x="416" y="97">Madeline Smith   (NA)</tspan>
                <tspan x="416" y="108">Steve Wechsler   4.702</tspan>
                <tspan x="416" y="119">Debbie White   4.620</tspan>
                <tspan x="416" y="130">Elijah Wilder   E11</tspan>
                <tspan x="416" y="141">Tony Woodbury   4.738</tspan>
                <tspan x="416" y="152">Michael Wynne   4.626</tspan>
                <tspan x="416" y="163">Qing Yao   W6</tspan>
                <tspan x="416" y="174">Hongli Zhan   (NA)</tspan>
                <tspan x="416" y="185">Asher Zheng   W3</tspan>
            </text>
        </g>
        <g id="Workstations-East---Outlines" transform="translate(599, 369)" stroke="#000000">
            <path d="M25.5,35.5 L25.5,55.5 L0.5,55.5 L0.5,35.5 L25.5,35.5 Z" id="Rectangle-65"></path>
            <path d="M79.5,57.5 L79.5,77.5 L54.5,77.5 L54.5,57.5 L79.5,57.5 Z" id="Rectangle-65"></path>
            <path d="M52.5,57.5 L52.5,77.5 L27.5,77.5 L27.5,57.5 L52.5,57.5 Z" id="Rectangle-65"></path>
            <path d="M25.5,57.5 L25.5,77.5 L0.5,77.5 L0.5,57.5 L25.5,57.5 Z" id="Rectangle-65"></path>
            <path d="M79.5,35.5 L79.5,55.5 L54.5,55.5 L54.5,35.5 L79.5,35.5 Z" id="Rectangle-65"></path>
            <path d="M52.5,35.5 L52.5,55.5 L27.5,55.5 L27.5,35.5 L52.5,35.5 Z" id="Rectangle-65"></path>
            <path d="M25.5,0.5 L25.5,20.5 L0.5,20.5 L0.5,0.5 L25.5,0.5 Z" id="Rectangle-65-copy"></path>
            <path d="M79.5,0.5 L79.5,20.5 L54.5,20.5 L54.5,0.5 L79.5,0.5 Z" id="Rectangle-65-copy"></path>
            <path d="M52.5,0.5 L52.5,20.5 L27.5,20.5 L27.5,0.5 L52.5,0.5 Z" id="Rectangle-65-copy"></path>
            <path d="M25.5,91.5 L25.5,111.5 L0.5,111.5 L0.5,91.5 L25.5,91.5 Z" id="Rectangle-65-copy-2"></path>
            <path d="M79.5,91.5 L79.5,111.5 L54.5,111.5 L54.5,91.5 L79.5,91.5 Z" id="Rectangle-65-copy-2"></path>
            <path d="M52.5,91.5 L52.5,111.5 L27.5,111.5 L27.5,91.5 L52.5,91.5 Z" id="Rectangle-65-copy-2"></path>
        </g>
        <g id="Workstations-East---Labels" transform="translate(603, 373)" fill="#000000" font-family="Helvetica" font-size="10" font-weight="normal">
            <text id="E1">
                <tspan x="3.38427734" y="10">E1</tspan>
            </text>
            <text id="E2">
                <tspan x="30.3842773" y="10">E2</tspan>
            </text>
            <text id="E3">
                <tspan x="57.3842773" y="10">E3</tspan>
            </text>
            <text id="E4">
                <tspan x="3.38427734" y="45">E4</tspan>
            </text>
            <text id="E5">
                <tspan x="30.3842773" y="45">E5</tspan>
            </text>
            <text id="E6">
                <tspan x="57.3842773" y="45">E6</tspan>
            </text>
            <text id="E7">
                <tspan x="3.38427734" y="67">E7</tspan>
            </text>
            <text id="E8">
                <tspan x="30.3842773" y="67">E8</tspan>
            </text>
            <text id="E9">
                <tspan x="57.3842773" y="67">E9</tspan>
            </text>
            <text id="E10">
                <tspan x="0.103515625" y="101">E10</tspan>
            </text>
            <text id="E11">
                <tspan x="27.472168" y="101">E11</tspan>
            </text>
            <text id="E12">
                <tspan x="54.1035156" y="101">E12</tspan>
            </text>
        </g>
        <g id="Workstations-West---Outlines" transform="translate(85, 339)" stroke="#000000">
            <path d="M25.5,67.5 L25.5,87.5 L0.5,87.5 L0.5,67.5 L25.5,67.5 Z" id="Rectangle-65"></path>
            <path d="M79.5,89.5 L79.5,109.5 L54.5,109.5 L54.5,89.5 L79.5,89.5 Z" id="Rectangle-65"></path>
            <path d="M52.5,89.5 L52.5,109.5 L27.5,109.5 L27.5,89.5 L52.5,89.5 Z" id="Rectangle-65"></path>
            <path d="M25.5,89.5 L25.5,109.5 L0.5,109.5 L0.5,89.5 L25.5,89.5 Z" id="Rectangle-65"></path>
            <path d="M79.5,125.5 L79.5,145.5 L54.5,145.5 L54.5,125.5 L79.5,125.5 Z" id="Rectangle-65-copy"></path>
            <path d="M52.5,125.5 L52.5,145.5 L27.5,145.5 L27.5,125.5 L52.5,125.5 Z" id="Rectangle-65-copy"></path>
            <path d="M25.5,125.5 L25.5,145.5 L0.5,145.5 L0.5,125.5 L25.5,125.5 Z" id="Rectangle-65-copy"></path>
            <path d="M79.5,67.5 L79.5,87.5 L54.5,87.5 L54.5,67.5 L79.5,67.5 Z" id="Rectangle-65"></path>
            <path d="M52.5,67.5 L52.5,87.5 L27.5,87.5 L27.5,67.5 L52.5,67.5 Z" id="Rectangle-65"></path>
            <path d="M25.5,0.5 L25.5,20.5 L0.5,20.5 L0.5,0.5 L25.5,0.5 Z" id="Rectangle-65-copy"></path>
            <path d="M52.5,22.5 L52.5,42.5 L27.5,42.5 L27.5,22.5 L52.5,22.5 Z" id="Rectangle-65-copy"></path>
            <path d="M25.5,22.5 L25.5,42.5 L0.5,42.5 L0.5,22.5 L25.5,22.5 Z" id="Rectangle-65-copy"></path>
            <path d="M52.5,0.5 L52.5,20.5 L27.5,20.5 L27.5,0.5 L52.5,0.5 Z" id="Rectangle-65-copy"></path>
        </g>
        <g id="Workstations-West---Labels" transform="translate(88, 344)" fill="#000000" font-family="Helvetica" font-size="10" font-weight="normal">
            <text id="W5">
                <tspan x="3" y="76">W5</tspan>
            </text>
            <text id="W1">
                <tspan x="3" y="10">W1</tspan>
            </text>
            <text id="W3">
                <tspan x="3" y="31">W3</tspan>
            </text>
            <text id="W4">
                <tspan x="30" y="31">W4</tspan>
            </text>
            <text id="W2">
                <tspan x="30" y="10">W2</tspan>
            </text>
            <text id="W6">
                <tspan x="30" y="76">W6</tspan>
            </text>
            <text id="W7">
                <tspan x="57" y="76">W7</tspan>
            </text>
            <text id="W8">
                <tspan x="3" y="98">W8</tspan>
            </text>
            <text id="W11">
                <tspan x="0.087890625" y="135">W11</tspan>
            </text>
            <text id="W9">
                <tspan x="30" y="98">W9</tspan>
            </text>
            <text id="W10">
                <tspan x="54.2192383" y="98">W10</tspan>
            </text>
            <text id="W12">
                <tspan x="27.2192383" y="135">W12</tspan>
            </text>
            <text id="W13">
                <tspan x="54.2192383" y="135">W13</tspan>
            </text>
        </g>
        <g id="RLP-Walls" transform="translate(7, 34)" stroke="#000000">
            <path d="M181.48877,348 C181.480091,337.242068 181.473581,329.173619 181.469241,323.794653 C181.466051,319.840285 181.461266,313.908735 181.454885,306 C163.957043,306 150.833662,306 142.084741,306 C139.843687,306 136.482107,306 132,306" id="Shape"></path>
            <polyline id="Shape" points="317.74463 347 317.74463 305.623047 346.89941 305.623047"></polyline>
            <polyline id="Shape" points="373.20898 305.623047 425.74414 305.623047 425.74414 346.585534"></polyline>
            <polyline id="Shape" points="575.5 313.41699 562.5 313.41699 562.5 346.41699"></polyline>
            <line x1="613.0625" y1="313" x2="593.5" y2="313" id="Shape"></line>
            <line x1="584.5" y1="276.5" x2="572.03125" y2="276.5" id="Shape"></line>
            <line x1="45.5" y1="248" x2="38.03125" y2="248" id="Shape"></line>
            <line x1="68.5" y1="248" x2="61.03125" y2="248" id="Shape"></line>
            <line x1="612.5" y1="276.5" x2="600.03125" y2="276.5" id="Shape"></line>
            <line x1="572.64941" y1="486" x2="610.83496" y2="486" id="Shape"></line>
            <polyline id="Shape" points="0 248 38 248 38 0"></polyline>
            <polyline id="Shape" transform="translate(87, 159.5) scale(-1, -1) translate(-87, -159.5)" points="68 202 106 202 106 117"></polyline>
        </g>
        <g id="RLP-Labels" transform="translate(6, 7)" fill="#000000" font-family="Helvetica-Bold, Helvetica" font-size="18" font-weight="bold">
            <text id="Department-of-Lingui">
                <tspan x="0" y="18">Department of Linguistics</tspan>
                <tspan x="222.020508" y="18" font-family="Helvetica" font-weight="normal"> | Patton Hall, Fourth Floor</tspan>
            </text>
        </g>
        <text id="⃪-Skybridge-to-WCP" font-family="STIXTwoMath-Regular, STIX Two Math" font-size="9" font-weight="normal" fill="#000000">
            <tspan x="12.922" y="317">⃪</tspan>
            <tspan x="12.922" y="317" font-family="Helvetica"> </tspan>
            <tspan x="15.4224883" y="317" font-family="Helvetica-Oblique, Helvetica" font-style="italic">Skybridge to WCP</tspan>
        </text>
        <text id="to-elevators-→" font-family="Helvetica-Oblique, Helvetica" font-size="9" font-style="italic" font-weight="normal" fill="#000000">
            <tspan x="106" y="139">to elevators </tspan>
            <tspan x="155.025391" y="139" font-family="LucidaGrande, Lucida Grande">→</tspan>
        </text>
    </g>
</svg>